<svg width="14" height="15" viewBox="0 0 14 15" fill="none" xmlns="http://www.w3.org/2000/svg">
<g clip-path="url(#clip0_3_319)">
<path d="M6.37542 0H0.499191C0.234004 0 0.0195312 0.21456 0.0195312 0.47966V13.6469C0.0195312 13.9121 0.234004 14.1266 0.49922 14.1266H6.37544C6.64063 14.1266 6.85525 13.9121 6.85525 13.6469V0.47966C6.85522 0.21456 6.6406 0 6.37542 0Z" fill="white"/>
<path d="M13.5112 0H8.11885C7.85418 0 7.63916 0.21456 7.63916 0.47966V6.17606C7.63916 6.44116 7.85418 6.65572 8.11885 6.65572H13.5112C13.7763 6.65572 13.9909 6.44116 13.9909 6.17606V0.47966C13.9909 0.21456 13.7763 0 13.5112 0Z" fill="white"/>
<path d="M13.5112 7.47086H8.11885C7.85418 7.47086 7.63916 7.68542 7.63916 7.95058V13.6469C7.63916 13.9121 7.85418 14.1266 8.11885 14.1266H13.5112C13.7763 14.1266 13.9909 13.9121 13.9909 13.6469V7.95058C13.9909 7.68542 13.7763 7.47086 13.5112 7.47086Z" fill="white"/>
</g>
<defs>
<clipPath id="clip0_3_319">
<rect width="14" height="14.1452" fill="white"/>
</clipPath>
</defs>
</svg>
