<svg width="15" height="14" viewBox="0 0 15 14" fill="none" xmlns="http://www.w3.org/2000/svg">
<g clip-path="url(#clip0_325_1102)">
<path d="M14.375 6.875H5.625" stroke="white" stroke-linecap="round" stroke-linejoin="round"/>
<path d="M14.375 11.875H5.625" stroke="white" stroke-linecap="round" stroke-linejoin="round"/>
<path d="M14.375 1.875H5.625" stroke="white" stroke-linecap="round" stroke-linejoin="round"/>
<path fill-rule="evenodd" clip-rule="evenodd" d="M1.87355 3.125C2.49855 3.125 3.12355 2.5 3.12355 1.875C3.12355 1.25 2.49855 0.625 1.87355 0.625C1.24855 0.625 0.625 1.25 0.625 1.875C0.625 2.5 1.24855 3.125 1.87355 3.125ZM1.87355 8.125C2.49855 8.125 3.12355 7.5 3.12355 6.875C3.12355 6.25 2.49855 5.625 1.87355 5.625C1.24855 5.625 0.625 6.25 0.625 6.875C0.625 7.5 1.24855 8.125 1.87355 8.125ZM1.87355 13.125C2.49855 13.125 3.12355 12.5 3.12355 11.875C3.12355 11.25 2.49855 10.625 1.87355 10.625C1.24855 10.625 0.625 11.25 0.625 11.875C0.625 12.5 1.24855 13.125 1.87355 13.125Z" fill="white"/>
</g>
<defs>
<clipPath id="clip0_325_1102">
<rect width="15" height="13.75" fill="white"/>
</clipPath>
</defs>
</svg>
